<?xml version="1.0" standalone="no"?>
<!DOCTYPE svg PUBLIC "-//W3C//DTD SVG 20010904//EN"
 "http://www.w3.org/TR/2001/REC-SVG-20010904/DTD/svg10.dtd">
<svg version="1.0" xmlns="http://www.w3.org/2000/svg"
 width="700.000000pt" height="700.000000pt" viewBox="0 0 700.000000 700.000000"
 preserveAspectRatio="xMidYMid meet">
<metadata>
Created by potrace 1.11, written by Peter Selinger 2001-2013
</metadata>
<g transform="translate(0.000000,700.000000) scale(0.100000,-0.100000)"
fill="#000000" stroke="none">
<path d="M3834 5548 c-15 -29 -82 -161 -149 -293 -67 -132 -246 -485 -398
-785 -151 -300 -282 -558 -291 -574 l-15 -29 -84 169 c-47 93 -128 252 -181
354 l-95 185 -86 0 -87 0 -135 -265 c-74 -146 -236 -465 -360 -710 -124 -245
-279 -548 -343 -675 -64 -126 -229 -450 -365 -720 -136 -269 -252 -496 -258
-502 -11 -15 -16 -14 95 -16 l77 -2 262 520 c360 714 636 1259 648 1281 5 11
53 105 105 209 216 435 352 699 361 701 6 2 89 -156 186 -349 l177 -352 -78
-150 c-42 -82 -177 -348 -300 -590 -122 -242 -269 -530 -325 -640 -138 -270
-315 -622 -315 -626 0 -5 170 -2 174 2 4 4 244 479 686 1354 127 253 235 463
238 467 4 4 94 -164 200 -372 l193 -380 -82 -163 c-45 -89 -130 -256 -189
-372 -163 -320 -270 -531 -270 -536 0 -3 107 -3 160 0 9 1 99 168 240 445 124
245 228 442 232 438 3 -4 104 -200 223 -437 119 -236 221 -434 225 -439 5 -4
41 -8 82 -8 102 0 102 0 91 15 -6 6 -124 237 -263 512 -139 275 -256 504 -261
509 -5 6 -9 18 -9 29 0 18 391 797 400 797 3 0 120 -229 261 -508 141 -279
352 -697 469 -929 197 -391 215 -423 239 -424 41 -1 93 -1 123 0 l28 1 -79
153 c-65 126 -451 887 -482 949 -5 10 -14 28 -21 41 -6 12 -99 195 -206 407
-108 212 -207 408 -222 435 l-27 50 -83 0 c-81 1 -83 0 -100 -28 -10 -16 -100
-192 -201 -393 -101 -200 -186 -364 -189 -364 -7 0 -64 110 -261 502 l-129
257 194 383 c107 211 302 595 433 854 131 260 242 474 247 475 8 4 65 -106
541 -1046 488 -965 662 -1309 825 -1630 92 -181 248 -490 346 -685 98 -195
179 -357 181 -359 5 -8 173 -6 173 3 0 8 -422 846 -620 1231 -48 94 -185 364
-305 600 -120 237 -284 561 -365 720 -81 160 -243 479 -360 710 -117 231 -239
470 -270 530 l-56 110 -87 3 -86 3 -27 -53z"/>
</g>
</svg>
